# AST/ASF file generated using VICON BodyLanguage
# -----------------------------------------------
:version 1.10
:name VICON
:units
  mass 1.0
  length 0.45
  angle deg
:documentation
   .ast/.asf automatically generated from VICON data using
   VICON BodyBuilder and BodyLanguage model FoxedUp or BRILLIANT.MOD
:root
   order TX TY TZ RX RY RZ
   axis XYZ
   position 0 0 0  
   orientation 0 0 0 
:bonedata
  begin
     id 1 
     name lhipjoint
     direction 0.603808 -0.713975 0.35448 
     length 2.2025 
     axis 0 0 0  XYZ
  end
  begin
     id 2 
     name lfemur
     direction 0.34202 -0.939693 0  
     length 6.55877  
     axis 0 0 20  XYZ
    dof rx ry rz
    limits (-160.0 20.0)
           (-70.0 70.0)
           (-60.0 70.0)
  end
  begin
     id 3 
     name ltibia
     direction 0.34202 -0.939693 0   
     length 6.80302   
     axis 0 0 20   XYZ
    dof rx
    limits (-10.0 170.0)
  end
  begin
     id 4 
     name lfoot
     direction 0.091848 -0.25235 0.963267   
     length 2.03446   
     axis -90 7.62852e-016 20   XYZ
    dof rx rz
    limits (-45.0 90.0)
           (-70.0 20.0)
  end
  begin
     id 5 
     name ltoes
     direction 1.53608e-011 -4.21925e-011 1   
     length 1.02033   
     axis -90 7.62852e-016 20   XYZ
    dof rx
    limits (-90.0 20.0)
  end
  begin
     id 6 
     name rhipjoint
     direction -0.587285 -0.724947 0.359928   
     length 2.16916  
     axis 0 0 0  XYZ 
  end
  begin
     id 7 
     name rfemur
     direction -0.34202 -0.939693 0   
     length 6.43173   
     axis 0 0 -20   XYZ
    dof rx ry rz
    limits (-160.0 20.0)
           (-70.0 70.0)
           (-70.0 60.0)
  end
  begin
     id 8 
     name rtibia
     direction -0.34202 -0.939693 0   
     length 6.70662   
     axis 0 0 -20   XYZ
    dof rx
    limits (-10.0 170.0)
 end
 begin
     id 9 
     name rfoot
     direction -0.11854 -0.325686 0.938018   
     length 2.0773  
     axis -90 -7.62852e-016 -20   XYZ
    dof rx rz
    limits (-45.0 90.0)
           (-20.0 70.0)
  end
  begin
     id 10 
     name rtoes
     direction -1.53547e-011 -4.21838e-011 1   
     length 1.03267   
     axis -90 -7.62852e-016 -20   XYZ
    dof rx
    limits (-90.0 20.0)
  end
  begin
     id 11 
     name lowerback
     direction -0.0286554 0.999539 0.0100613   
     length 2.08751   
     axis 0 0 0   XYZ
    dof rx ry rz
    limits (-20.0 45.0)
           (-30.0 30.0)
           (-30.0 30.0)
  end
  begin
     id 12 
     name upperback
     direction 0.0227093 0.999705 -0.00860929   
     length 2.08517   
     axis 0 0 0   XYZ
    dof rx ry rz
    limits (-20.0 45.0)
           (-30.0 30.0)
           (-30.0 30.0)
  end
  begin
     id 13 
     name thorax
     direction 0.0351627 0.999285 -0.013892   
     length 2.08412   
     axis 0 0 0   XYZ
    dof rx ry rz
    limits (-20.0 45.0)
           (-30.0 30.0)
           (-30.0 30.0)
  end
  begin
     id 14 
     name lowerneck
     direction -0.0696283 0.997344 0.0213922   
     length 1.44164   
     axis 0 0 0   XYZ
    dof rx ry rz
    limits (-20.0 45.0)
           (-30.0 30.0)
           (-30.0 30.0)
  end
  begin
     id 15 
     name upperneck
     direction 0.0531 0.990412 -0.127531   
     length 1.45022   
     axis 0 0 0   XYZ
    dof rx ry rz
    limits (-20.0 45.0)
           (-30.0 30.0)
           (-30.0 30.0)
  end
  begin
     id 16
     name head
     direction 0.0188154 0.998548 -0.0504727  
     length 1.45845  
     axis 0 0 0   XYZ
    dof rx ry rz
    limits (-20.0 45.0)
           (-30.0 30.0)
           (-30.0 30.0)
  end
  begin
     id 17 
     name lclavicle
     direction 0.961559 0.260051 0.088188  
     length 2.86057  
     axis 0 0 0   XYZ
    dof ry rz
    limits (-20.0 10.0)
           (0.0 20.0)
  end
  begin
     id 18 
     name lhumerus
     direction 1 -4.48959e-011 2.88185e-027   
     length 4.36901   
     axis 180 -30 -90   XYZ
    dof rx ry rz
    limits (-60.0 90.0)
           (-90.0 90.0)
           (-90.0 90.0)
  end
  begin
     id 19
     name lradius
     direction 1 -4.48965e-011 -3.92618e-028   
     length 3.21737   
     axis 180 -30 -90   XYZ
    dof rx
    limits (-10.0 170.0)
  end
  begin
     id 20
     name lwrist
     direction 1 -4.49037e-011 2.57246e-027   
     length 1.60869   
     axis -1.61769e-015 90 90   XYZ
    dof ry
    limits (-180.0 0.0)
 end
  begin
     id 21 
     name lhand
     direction 1 -4.48807e-011 5.12958e-027   
     length 0.564313   
     axis -3.27988e-015 90 90   XYZ
    dof rx rz
    limits (-90.0 90.0)
           (-45.0 45.0)
  end
  begin
     id 22 
     name lfingers
     direction 1 -4.48879e-011 1.02687e-026   
     length 0.454963   
     axis -6.5598e-015 90 90   XYZ
    dof rx
    limits (0.0 90.0)
  end
  begin
     id 23
     name lthumb
     direction 0.707107 -6.3475e-011 0.707107   
     length 0.653239   
     axis -90 45 2.19363e-014   XYZ
    dof rx rz
    limits (-45.0 45.0)
           (-45.0 45.0)
  end
  begin
     id 24 
     name rclavicle
     direction -0.954677 0.253915 0.155304   
     length 3.11497  
     axis 0 0 0   XYZ 
    dof ry rz
    limits (-10.0 20.0)
           (-20.0 0.0)
  end
  begin
     id 25 
     name rhumerus
     direction -1 -4.48958e-011 -8.20169e-028  
     length 4.34118   
     axis 180 30 90   XYZ
    dof rx ry rz
    limits (-90.0 60.0)
           (-90.0 90.0)
           (-90.0 90.0)
  end
  begin
     id 26 
     name rradius
     direction -1 -4.48978e-011 1.5676e-027   
     length 3.09531   
     axis 180 30 90   XYZ
    dof rx
    limits (-10.0 170.0)
  end
  begin
     id 27 
     name rwrist
     direction -1 -4.49001e-011 2.57123e-027   
     length 1.54765   
     axis -1.61769e-015 -90 -90   XYZ
    dof ry
    limits (-180.0 0.0)
  end
  begin
     id 28
     name rhand
     direction -1 -4.48847e-011 5.13225e-027   
     length 0.597446   
     axis -3.27988e-015 -90 -90   XYZ
    dof rx rz
    limits (-90.0 90.0)
           (-45.0 45.0)
  end
  begin
     id 29
     name rfingers
     direction -1 -4.49094e-011 1.02974e-026   
     length 0.481677   
     axis -6.5598e-015 -90 -90   XYZ
    dof rx
    limits (0.0 90.0)
  end
  begin
     id 30
     name rthumb
     direction -0.707107 -6.34859e-011 0.707107   
     length 0.691594   
     axis -90 -45 -2.19363e-014   XYZ
    dof rx rz
    limits (-45.0 45.0)
           (-45.0 45.0)
  end
:hierarchy
  begin
    root lhipjoint rhipjoint lowerback
    lhipjoint lfemur
    lfemur ltibia
    ltibia lfoot
    lfoot ltoes
    rhipjoint rfemur
    rfemur rtibia
    rtibia rfoot
    rfoot rtoes
    lowerback upperback
    upperback thorax
    thorax lowerneck lclavicle rclavicle
    lowerneck upperneck
    upperneck head
    lclavicle lhumerus
    lhumerus lradius
    lradius lwrist
    lwrist lhand lthumb
    lhand lfingers
    rclavicle rhumerus
    rhumerus rradius
    rradius rwrist
    rwrist rhand rthumb
    rhand rfingers
  end

#!OML:ASF I:\Acrobat_Osman\acrobat\cartwheel_test 2\Patient 1\Session 1\acrobat.ASF
:FULLY-SPECIFIED
:DEGREES
339
root -0.452475 16.4978 -7.35056 207.748 444.919 -163.395
lowerback -5.81766 2.30529 0.227516
upperback 0.1524 3.04855 0.459406
thorax 3.40291 1.51908 0.609719
lowerneck -10.899 0.94697 -3.72677
upperneck 7.76076 1.48396 3.51295
head 4.039 0.819658 1.77956
rclavicle -3.64273e-014 -1.63003e-014
rhumerus -61.4777 2.21252 -57.2906
rradius 51.0028
rwrist -3.33684
rhand -28.0366 36.3142
rfingers 7.12502
rthumb -1.42129 6.33921
lclavicle -3.64273e-014 -1.63003e-014
lhumerus -55.962 -10.3331 65.5701
lradius 86.4895
lwrist 35.5725
lhand -10.9533 -319.853
lfingers 7.12502
lthumb 15.0655 -1010.42
rfemur -11.5416 3.17613 25.5349
rtibia 31.6036
rfoot -0.746135 -10.355
rtoes -17.2013
lfemur -16.6277 5.28022 -21.4555
ltibia 36.4919
lfoot -2.92985 8.58251
ltoes -23.509
340
root -0.529014 16.2146 -7.39864 229.303 448.034 -142.227
lowerback -5.97437 2.31321 -0.154832
upperback -0.00143088 3.09085 0.31009
thorax 3.3196 1.53558 0.675874
lowerneck -10.5821 1.3396 -3.43264
upperneck 7.12025 1.98699 3.30484
head 4.20405 1.05135 1.87946
rclavicle -8.90804e-015 -3.97569e-015
rhumerus -60.332 2.01879 -55.7851
rradius 52.0464
rwrist -3.80858
rhand -27.7061 36.6611
rfingers 7.12502
rthumb -1.10208 6.68417
lclavicle -8.90804e-015 -3.97569e-015
lhumerus -55.901 -11.1047 64.5169
lradius 86.5505
lwrist 35.0213
lhand -11.937 -319.487
lfingers 7.12502
lthumb 14.1177 -1009.99
rfemur -11.0223 2.67916 25.7202
rtibia 31.2845
rfoot -6.97626 -11.8846
rtoes -19.3966
lfemur -15.8997 6.11942 -21.8505
ltibia 36.4315
lfoot -8.15802 7.33224
ltoes -32.8644
341
root -0.595267 15.9812 -7.45073 174.273 452.264 -197.649
lowerback -5.95482 2.43003 -0.757041
upperback -0.158157 3.29548 0.0850635
thorax 3.12398 1.63161 0.792186
lowerneck -9.8026 1.75836 -3.36148
upperneck 6.18966 2.53354 3.24056
head 3.69542 1.32001 1.84167
rclavicle 2.26863e-014 4.67144e-015
rhumerus -59.129 1.5912 -54.4512
rradius 53.581
rwrist -4.11186
rhand -27.3276 36.8866
rfingers 7.12502
rthumb -0.736487 6.90811
lclavicle 2.26863e-014 4.67144e-015
lhumerus -55.8054 -11.8179 63.5499
lradius 86.9805
lwrist 34.3393
lhand -12.7074 -318.404
lfingers 7.12502
lthumb 13.3752 -1008.85
rfemur -10.9802 2.64124 25.1512
rtibia 31.385
rfoot -12.2014 -12.4692
rtoes -22.3193
lfemur -15.3223 6.81445 -22.7993
ltibia 36.0564
lfoot -13.0627 7.09106
ltoes -31.0329
342
root -0.672541 15.8045 -7.50323 190.858 456.016 -181.49
lowerback -5.58573 2.57412 -1.28325
upperback -0.388048 3.52535 -0.184136
thorax 2.66171 1.74646 0.801537
lowerneck -8.5661 2.23304 -3.74408
upperneck 4.48773 3.181 3.57854
head 2.83379 1.64784 1.99012
rclavicle 9.3553e-015 -1.21756e-014
rhumerus -58.0825 0.977821 -53.7408
rradius 55.8377
rwrist -4.31384
rhand -27.5765 34.9454
rfingers 7.12502
rthumb -0.976862 4.96787
lclavicle 9.3553e-015 -1.21756e-014
lhumerus -55.6627 -11.9389 62.7409
lradius 87.5653
lwrist 33.1921
lhand -13.3504 -317.051
lfingers 7.12502
lthumb 12.7554 -1007.46
rfemur -11.284 3.99671 24.1873
rtibia 31.2703
rfoot -16.1273 -12.9912
rtoes -22.4295
lfemur -15.2959 7.37024 -24.1858
ltibia 35.936
lfoot -16.3839 8.73392
ltoes -29.6108
343
root -0.772912 15.6898 -7.58162 200.74 460.692 -171.44
lowerback -4.24606 2.857 -2.83406
upperback -0.664475 3.96603 -0.89254
thorax 1.56472 1.97271 0.882709
lowerneck -8.1803 2.62314 -3.57011
upperneck 4.2297 3.70735 3.01678
head 2.66076 1.89044 1.78002
rclavicle -5.5697e-014 3.97569e-015
rhumerus -57.8645 0.0742269 -53.5473
rradius 58.9438
rwrist -4.23707
rhand -27.8286 36.6212
rfingers 7.12502
rthumb -1.22042 6.6449
lclavicle -5.5697e-014 3.97569e-015
lhumerus -55.6723 -11.0563 62.4263
lradius 87.9143
lwrist 31.5165
lhand -13.938 -316.301
lfingers 7.12502
lthumb 12.1889 -1006.68
rfemur -11.781 7.26512 21.2516
rtibia 31.4744
rfoot -18.2942 -13.0565
rtoes -21.9819
lfemur -14.9994 7.76314 -27.4823
ltibia 35.4748
lfoot -17.5638 12.3982
ltoes -29.5685
344
root -0.827078 15.6722 -7.6498 191.699 464.119 -181.474
lowerback -5.08425 3.21532 -0.64116
upperback -0.580534 4.34426 -0.570706
thorax 2.24341 2.16736 0.0730092
lowerneck -9.28754 2.97841 -2.85724
upperneck 5.25847 4.20273 1.81332
head 3.23797 2.09906 1.33409
rclavicle -2.6544e-014 6.36111e-015
rhumerus -56.9434 -2.50664 -53.9631
rradius 61.6638
rwrist -3.92242
rhand -28.2591 36.4966
rfingers 7.12502
rthumb -1.6362 6.52313
lclavicle -2.6544e-014 6.36111e-015
lhumerus -54.8647 -9.0978 62.9423
lradius 87.9326
lwrist 30.1348
lhand -14.9161 -315.876
lfingers 7.12502
lthumb 11.2457 -1006.2
rfemur -13.201 10.116 22.0117
rtibia 31.669
rfoot -18.144 -11.5707
rtoes -23.2728
lfemur -15.9623 8.52969 -26.6775
ltibia 35.3101
lfoot -17.5953 15.255
ltoes -28.6479
345
root -0.860445 15.7724 -7.74874 191.373 466.853 -181.704
lowerback -4.86419 3.07671 0.0594935
upperback -0.575739 4.11618 -0.446166
thorax 2.16627 2.05916 -0.21654
lowerneck -7.92931 3.46866 -2.07072
upperneck 4.68555 4.85924 -0.0437566
head 2.82687 2.37395 0.579417
rclavicle 3.39922e-014 1.39149e-015
rhumerus -56.6122 -4.19566 -55.155
rradius 64.3929
rwrist -5.10665
rhand -28.4601 36.0975
rfingers 7.12502
rthumb -1.83024 6.12556
lclavicle 3.39922e-014 1.39149e-015
lhumerus -54.9526 -6.96301 64.8089
lradius 88.0511
lwrist 29.8637
lhand -16.0143 -315.259
lfingers 7.12502
lthumb 10.1863 -1005.53
rfemur -14.3844 8.94629 21.0171
rtibia 32.2137
rfoot -15.5067 -8.1729
rtoes -28.2165
lfemur -16.0802 8.78687 -27.5293
ltibia 35.0518
lfoot -16.2309 17.166
ltoes -27.4096
346
root -0.894322 15.9353 -7.82382 190.455 468.711 -182.303
lowerback -4.55033 2.8564 0.391375
upperback -0.20469 3.79102 0.0620102
thorax 2.35724 1.89657 0.0920893
lowerneck -7.79835 3.69122 -1.69998
upperneck 4.85985 5.24034 -1.77675
head 2.91893 2.50683 -0.0221795
rclavicle -3.37934e-014 1.2921e-014
rhumerus -55.8616 -5.93021 -56.7008
rradius 66.6148
rwrist -7.35628
rhand -28.2251 35.7886
rfingers 7.12502
rthumb -1.60336 5.81486
lclavicle -3.37934e-014 1.2921e-014
lhumerus -54.2121 -5.73429 68.124
lradius 88.3632
lwrist 30.8234
lhand -16.9528 -314.735
lfingers 7.12502
lthumb 9.28091 -1004.96
rfemur -15.2036 7.82837 20.5486
rtibia 32.491
rfoot -11.9711 -5.28849
rtoes -26.6829
lfemur -16.3643 9.72341 -27.7354
ltibia 35.2931
lfoot -13.7345 17.276
ltoes -27.2471
347
root -0.937562 16.1448 -7.87568 189.734 469.756 -182.455
lowerback -3.74124 2.54948 0.460565
upperback 0.11733 3.37078 0.527913
thorax 2.20959 1.68555 0.472181
lowerneck -8.12261 3.66991 -1.51837
upperneck 5.61083 5.31803 -2.94053
head 3.28411 2.49091 -0.409439
rclavicle 4.20927e-014 3.97569e-016
rhumerus -55.8911 -6.7034 -58.9482
rradius 68.2068
rwrist -9.95326
rhand -28.2088 35.6642
rfingers 7.12502
rthumb -1.58759 5.69041
lclavicle 4.20927e-014 3.97569e-016
lhumerus -53.3739 -6.68402 72.2483
lradius 89.3322
lwrist 32.3324
lhand -17.5306 -314.638
lfingers 7.12502
lthumb 8.72333 -1004.84
rfemur -15.9001 6.89711 20.2911
rtibia 32.9548
rfoot -7.77791 -4.04191
rtoes -22.9837
lfemur -16.6515 10.9987 -27.5653
ltibia 35.6182
lfoot -10.2876 15.8658
ltoes -25.5648
